<?xml version="1.0" standalone="no"?><!DOCTYPE svg PUBLIC "-//W3C//DTD SVG 1.1//EN" "http://www.w3.org/Graphics/SVG/1.1/DTD/svg11.dtd"><svg t="1568710861959" class="icon" viewBox="0 0 1024 1024" version="1.1" xmlns="http://www.w3.org/2000/svg" p-id="6119" xmlns:xlink="http://www.w3.org/1999/xlink" width="128" height="128"><defs><style type="text/css"></style></defs><path d="M864.193 928.229c0 17.51-14.508 32.018-32.018 32.018L191.824 960.247c-17.51 0-32.018-14.508-32.018-32.018L159.806 95.771c0-17.51 14.508-32.018 32.018-32.018l640.352 0c17.51 0 32.018 14.508 32.018 32.018L864.194 928.229zM800.158 896.211 800.158 127.789 223.842 127.789l0 768.422 192.105 0L415.947 784.149c0-8.505 7.504-16.009 16.009-16.009l160.088 0c8.505 0 16.009 7.504 16.009 16.009l0 112.062L800.158 896.211zM351.912 239.851c0 8.505-7.504 16.009-16.009 16.009l-32.018 0c-8.505 0-16.009-7.504-16.009-16.009l0-32.018c0-8.505 7.504-16.009 16.009-16.009l32.018 0c8.505 0 16.009 7.504 16.009 16.009L351.912 239.851zM351.912 367.921c0 8.505-7.504 16.009-16.009 16.009l-32.018 0c-8.505 0-16.009-7.504-16.009-16.009l0-32.018c0-8.505 7.504-16.009 16.009-16.009l32.018 0c8.505 0 16.009 7.504 16.009 16.009L351.912 367.921zM351.912 495.991c0 8.505-7.504 16.009-16.009 16.009l-32.018 0c-8.505 0-16.009-7.504-16.009-16.009l0-32.018c0-8.505 7.504-16.009 16.009-16.009l32.018 0c8.505 0 16.009 7.504 16.009 16.009L351.912 495.991zM351.912 624.062c0 8.505-7.504 16.009-16.009 16.009l-32.018 0c-8.505 0-16.009-7.504-16.009-16.009l0-32.018c0-8.505 7.504-16.009 16.009-16.009l32.018 0c8.505 0 16.009 7.504 16.009 16.009L351.912 624.062zM351.912 752.132c0 8.505-7.504 16.009-16.009 16.009l-32.018 0c-8.505 0-16.009-7.504-16.009-16.009l0-32.018c0-8.505 7.504-16.009 16.009-16.009l32.018 0c8.505 0 16.009 7.504 16.009 16.009L351.912 752.132zM479.982 239.851c0 8.505-7.504 16.009-16.009 16.009l-32.018 0c-8.505 0-16.009-7.504-16.009-16.009l0-32.018c0-8.505 7.504-16.009 16.009-16.009l32.018 0c8.505 0 16.009 7.504 16.009 16.009L479.982 239.851zM479.982 367.921c0 8.505-7.504 16.009-16.009 16.009l-32.018 0c-8.505 0-16.009-7.504-16.009-16.009l0-32.018c0-8.505 7.504-16.009 16.009-16.009l32.018 0c8.505 0 16.009 7.504 16.009 16.009L479.982 367.921zM479.982 495.991c0 8.505-7.504 16.009-16.009 16.009l-32.018 0c-8.505 0-16.009-7.504-16.009-16.009l0-32.018c0-8.505 7.504-16.009 16.009-16.009l32.018 0c8.505 0 16.009 7.504 16.009 16.009L479.982 495.991zM479.982 624.062c0 8.505-7.504 16.009-16.009 16.009l-32.018 0c-8.505 0-16.009-7.504-16.009-16.009l0-32.018c0-8.505 7.504-16.009 16.009-16.009l32.018 0c8.505 0 16.009 7.504 16.009 16.009L479.982 624.062zM608.053 239.851c0 8.505-7.504 16.009-16.009 16.009l-32.018 0c-8.505 0-16.009-7.504-16.009-16.009l0-32.018c0-8.505 7.504-16.009 16.009-16.009l32.018 0c8.505 0 16.009 7.504 16.009 16.009L608.053 239.851zM608.053 367.921c0 8.505-7.504 16.009-16.009 16.009l-32.018 0c-8.505 0-16.009-7.504-16.009-16.009l0-32.018c0-8.505 7.504-16.009 16.009-16.009l32.018 0c8.505 0 16.009 7.504 16.009 16.009L608.053 367.921zM608.053 495.991c0 8.505-7.504 16.009-16.009 16.009l-32.018 0c-8.505 0-16.009-7.504-16.009-16.009l0-32.018c0-8.505 7.504-16.009 16.009-16.009l32.018 0c8.505 0 16.009 7.504 16.009 16.009L608.053 495.991zM608.053 624.062c0 8.505-7.504 16.009-16.009 16.009l-32.018 0c-8.505 0-16.009-7.504-16.009-16.009l0-32.018c0-8.505 7.504-16.009 16.009-16.009l32.018 0c8.505 0 16.009 7.504 16.009 16.009L608.053 624.062zM736.123 239.851c0 8.505-7.504 16.009-16.009 16.009l-32.018 0c-8.505 0-16.009-7.504-16.009-16.009l0-32.018c0-8.505 7.504-16.009 16.009-16.009l32.018 0c8.505 0 16.009 7.504 16.009 16.009L736.123 239.851zM736.123 367.921c0 8.505-7.504 16.009-16.009 16.009l-32.018 0c-8.505 0-16.009-7.504-16.009-16.009l0-32.018c0-8.505 7.504-16.009 16.009-16.009l32.018 0c8.505 0 16.009 7.504 16.009 16.009L736.123 367.921zM736.123 495.991c0 8.505-7.504 16.009-16.009 16.009l-32.018 0c-8.505 0-16.009-7.504-16.009-16.009l0-32.018c0-8.505 7.504-16.009 16.009-16.009l32.018 0c8.505 0 16.009 7.504 16.009 16.009L736.123 495.991zM736.123 624.062c0 8.505-7.504 16.009-16.009 16.009l-32.018 0c-8.505 0-16.009-7.504-16.009-16.009l0-32.018c0-8.505 7.504-16.009 16.009-16.009l32.018 0c8.505 0 16.009 7.504 16.009 16.009L736.123 624.062zM736.123 752.132c0 8.505-7.504 16.009-16.009 16.009l-32.018 0c-8.505 0-16.009-7.504-16.009-16.009l0-32.018c0-8.505 7.504-16.009 16.009-16.009l32.018 0c8.505 0 16.009 7.504 16.009 16.009L736.123 752.132z" p-id="6120"></path></svg>