<?xml version="1.0" standalone="no"?><!DOCTYPE svg PUBLIC "-//W3C//DTD SVG 1.1//EN" "http://www.w3.org/Graphics/SVG/1.1/DTD/svg11.dtd"><svg t="1568018043585" class="icon" viewBox="0 0 1024 1024" version="1.1" xmlns="http://www.w3.org/2000/svg" p-id="2445" xmlns:xlink="http://www.w3.org/1999/xlink" width="128" height="128"><defs><style type="text/css"></style></defs><path d="M109.464 634.44v247.256c0 34.138 27.678 61.815 61.812 61.815h123.629V572.63H171.276c-34.134 0-61.812 27.677-61.812 61.81z m92.723 30.908c17.081 0 30.904 13.826 30.904 30.908v123.629c0 17.082-13.823 30.904-30.904 30.904-17.084 0-30.911-13.822-30.911-30.904V696.256c0-17.082 13.826-30.908 30.911-30.908zM851.23 356.282H665.787V263.56h92.722c34.138 0 61.811-27.678 61.811-61.815v-61.811c0-34.138-27.673-61.815-61.811-61.815h-92.722c-34.134 0-61.815 27.677-61.815 61.815V356.283H418.535c-34.141 0-61.815 27.677-61.815 61.811v525.419h494.51c34.135 0 61.812-27.678 61.812-61.815V418.092c0-34.133-27.677-61.81-61.812-61.81zM573.068 850.789h-92.723c-17.085 0-30.907-13.822-30.907-30.904 0-17.085 13.822-30.906 30.907-30.906h92.723c17.081 0 30.903 13.821 30.903 30.906 0.001 17.082-13.822 30.904-30.903 30.904z m0-154.533h-92.723c-17.085 0-30.907-13.823-30.907-30.908 0-17.081 13.822-30.907 30.907-30.907h92.723c17.081 0 30.903 13.826 30.903 30.907 0.001 17.085-13.822 30.908-30.903 30.908z m0-154.534h-92.723c-17.085 0-30.907-13.821-30.907-30.906s13.822-30.908 30.907-30.908h92.723c17.081 0 30.903 13.823 30.903 30.908s-13.822 30.906-30.903 30.906z m185.441-401.788v61.811h-92.722v-61.811h92.722z m30.907 710.855h-92.723c-17.084 0-30.906-13.822-30.906-30.904 0-17.085 13.822-30.906 30.906-30.906h92.723c17.082 0 30.903 13.821 30.903 30.906 0 17.082-13.821 30.904-30.903 30.904z m0-154.533h-92.723c-17.084 0-30.906-13.823-30.906-30.908 0-17.081 13.822-30.907 30.906-30.907h92.723c17.082 0 30.903 13.826 30.903 30.907 0 17.085-13.821 30.908-30.903 30.908z m0-154.534h-92.723c-17.084 0-30.906-13.821-30.906-30.906s13.822-30.908 30.906-30.908h92.723c17.082 0 30.903 13.823 30.903 30.908s-13.821 30.906-30.903 30.906z" p-id="2446"></path></svg>