<?xml version="1.0" standalone="no"?><!DOCTYPE svg PUBLIC "-//W3C//DTD SVG 1.1//EN" "http://www.w3.org/Graphics/SVG/1.1/DTD/svg11.dtd"><svg t="1535957712684" class="icon" style="" viewBox="0 0 1024 1024" version="1.1" xmlns="http://www.w3.org/2000/svg" p-id="1963" xmlns:xlink="http://www.w3.org/1999/xlink" width="128" height="128"><defs><style type="text/css"></style></defs><path d="M403.626667 42.666667h217.6c45.226667 0 81.92 36.693333 81.92 81.92s-36.693333 81.92-81.92 81.92H403.626667c-45.226667 0-81.92-36.693333-81.92-81.92 0.853333-45.226667 37.546667-81.92 81.92-81.92z" p-id="1964" fill=""></path><path d="M820.906667 74.24h-42.666667v131.413333c0 40.106667-32.426667 72.533333-72.533333 72.533334H324.266667c-40.106667 0-72.533333-32.426667-72.533334-72.533334V74.24H204.8c-55.466667 0-99.84 44.373333-99.84 98.986667v708.266666c0 55.466667 44.373333 99.84 99.84 99.84h616.96c55.466667 0 99.84-44.373333 99.84-99.84V174.08c-0.853333-54.613333-45.226667-99.84-100.693333-99.84zM693.76 502.613333L490.666667 757.76l-2.56 2.56-2.56 2.56c-0.853333 0.853333-0.853333 0.853333-1.706667 0.853333-0.853333 0.853333-2.56 1.706667-4.266667 2.56l-3.413333 1.706667c-0.853333 0.853333-2.56 0.853333-3.413333 1.706667l-3.413334 0.853333c-0.853333 0-2.56 0.853333-3.413333 0.853333h-7.68c-0.853333 0-1.706667 0-2.56-0.853333-1.706667 0-2.56-0.853333-4.266667-0.853333-0.853333 0-1.706667-0.853333-3.413333-0.853334-0.853333-0.853333-2.56-0.853333-3.413333-1.706666-0.853333-0.853333-2.56-1.706667-3.413334-1.706667-0.853333-0.853333-1.706667-0.853333-2.56-1.706667l-2.56-2.56-2.56-2.56L332.8 629.76c-12.8-15.36-11.093333-38.4 4.266667-51.2s38.4-11.093333 51.2 4.266667c0 0.853333 0.853333 0.853333 0.853333 1.706666l73.386667 92.16 174.08-219.306666c12.8-15.36 34.986667-18.773333 51.2-5.973334 15.36 12.8 17.92 34.986667 5.973333 51.2z" p-id="1965" fill=""></path></svg>
